<svg width="308" height="159" viewBox="0 0 308 159" fill="none" xmlns="http://www.w3.org/2000/svg">
<path d="M151.39 74.3183V95.9074H159.256V74.0883C159.256 72.024 160.945 70.351 163.028 70.351H174.245V62.5574H163.261C156.704 62.5574 151.39 67.8228 151.39 74.3183Z" fill="white"/>
<path d="M202.487 62.5575L194.632 77.4059L185.948 62.5575H176.863L190.299 85.5488L189.456 87.0434C189.025 87.8575 188.18 88.3623 187.254 88.3623H181.692V96.1559H187.254C191.109 96.1559 194.619 94.0577 196.417 90.6778L211.422 62.5575H202.487Z" fill="white"/>
<path d="M219.421 82.0274L224.272 72.8433C224.998 71.3286 226.561 70.3504 228.254 70.3504H230.596C231.143 70.3504 231.586 70.7894 231.586 71.3305V82.0274H219.421ZM233.516 62.5578H228.254C223.543 62.5578 219.191 65.2806 217.237 69.3635L203.206 95.9222H212.082L215.305 89.8211H231.586V95.9222H239.452V68.4378C239.452 65.19 236.795 62.5578 233.516 62.5578Z" fill="white"/>
<path d="M271.31 62.5575H253.499C250.221 62.5575 247.564 65.1906 247.564 68.4375V95.8484H255.43V71.3236C255.43 70.7862 255.87 70.351 256.411 70.351H268.398C268.941 70.351 269.381 70.7862 269.381 71.3236V95.8345H277.246V68.4375C277.246 65.1906 274.589 62.5575 271.31 62.5575Z" fill="white"/>
<path d="M76.4039 65.7922C65.419 65.9319 29.582 67.3168 29.582 79.2321C29.582 92.041 70.965 92.6892 79.2616 92.6892C87.5574 92.6892 128.94 92.041 128.94 79.2321C128.94 73.552 121.473 70.9509 115.858 69.489C109.732 67.8941 101.459 66.7376 92.3244 66.1729C92.4741 68.5985 92.5793 71.0916 92.6437 73.6262C109.336 74.7143 118.164 77.5302 120.879 79.2418C117.203 81.6174 103.03 85.2642 79.2616 85.2642C55.4508 85.2642 41.2701 81.6039 37.6234 79.2293C41.0851 76.9569 54.0576 73.5029 76.4983 73.2157C78.5485 73.1907 80.1894 71.507 80.1624 69.4563C80.1364 67.4228 78.4802 65.7913 76.4521 65.7913C76.4356 65.7913 76.4202 65.7913 76.4039 65.7922Z" fill="white"/>
<path d="M65.8062 79.2322C65.8062 87.5291 66.4546 128.921 79.2613 128.921C84.9372 128.921 87.5379 121.459 88.9996 115.844C90.5953 109.714 91.7516 101.432 92.318 92.2878C89.5669 92.4529 87.0228 92.5519 84.866 92.6101C83.7781 109.31 80.9618 118.144 79.2507 120.86C76.8757 117.181 73.2289 103.005 73.2289 79.2322C73.2289 55.4342 76.8835 41.2531 79.2575 37.5929C81.537 41.1442 85.0895 54.6825 85.2841 77.3626C85.3014 79.4028 86.9596 81.044 88.9953 81.044H89.0283C91.0773 81.0256 92.7252 79.3488 92.7078 77.2999C92.6034 65.1715 91.5149 53.8075 89.6417 45.3026C87.2734 34.5495 83.9748 29.541 79.2613 29.541C66.4546 29.541 65.8062 70.9337 65.8062 79.2322Z" fill="white"/>
</svg>
