<svg width="40" height="44" viewBox="0 0 40 44" fill="none" xmlns="http://www.w3.org/2000/svg">
<path d="M10.1019 34.4076H17.191H24.2802" stroke="#1671C2" stroke-width="3" stroke-linecap="round" stroke-linejoin="round"/>
<path d="M10.1019 26.3057H11.1146H12.1273" stroke="#1671C2" stroke-width="3" stroke-linecap="round" stroke-linejoin="round"/>
<path d="M10.1019 18.2038H13.1401H16.1783" stroke="#1671C2" stroke-width="3" stroke-linecap="round" stroke-linejoin="round"/>
<path d="M10.1019 2H29.3439L38.4585 11.1146V36.4331" stroke="#1671C2" stroke-width="3" stroke-linecap="round" stroke-linejoin="round"/>
<path d="M2 39.4713V11.1146C2 9.43666 3.36025 8.07642 5.03821 8.07642H24.7896C25.1119 8.07642 25.421 8.20445 25.6488 8.43237L32.0262 14.8096C32.2541 15.0375 32.3821 15.3467 32.3821 15.669V39.4713C32.3821 41.1492 31.0218 42.5095 29.3439 42.5095H5.03821C3.36025 42.5095 2 41.1492 2 39.4713Z" stroke="#1671C2" stroke-width="3" stroke-linecap="round" stroke-linejoin="round"/>
<path d="M24.2802 8.07642V14.963C24.2802 15.6342 24.8243 16.1783 25.4955 16.1783H32.3821" stroke="#1671C2" stroke-width="3" stroke-linecap="round" stroke-linejoin="round"/>
</svg>
