<svg width="43" height="43" viewBox="0 0 43 43" fill="none" xmlns="http://www.w3.org/2000/svg">
<path d="M11.75 33.2V31.25C11.75 25.8653 16.1152 21.5 21.5 21.5C26.8847 21.5 31.25 25.8653 31.25 31.25V33.2" stroke="#1671C2" stroke-width="3" stroke-linecap="round"/>
<path d="M21.5 21.5C24.7309 21.5 27.35 18.8809 27.35 15.65C27.35 12.4191 24.7309 9.79999 21.5 9.79999C18.269 9.79999 15.65 12.4191 15.65 15.65C15.65 18.8809 18.269 21.5 21.5 21.5Z" stroke="#1671C2" stroke-width="3" stroke-linecap="round" stroke-linejoin="round"/>
<path d="M21.5 41C32.2696 41 41 32.2696 41 21.5C41 10.7304 32.2696 2 21.5 2C10.7304 2 2 10.7304 2 21.5C2 32.2696 10.7304 41 21.5 41Z" stroke="#1671C2" stroke-width="3"/>
</svg>
